<svg xmlns="http://www.w3.org/2000/svg" viewBox="0 0 500 500"><g id="freepik--Floor--inject-2"><polygon points="41.45 368.3 93.59 368.06 145.73 367.97 250 367.81 354.27 367.97 406.41 368.06 458.55 368.3 406.41 368.55 354.27 368.64 250 368.8 145.73 368.64 93.59 368.55 41.45 368.3" style="fill:#263238"></polygon></g><g id="freepik--Puff--inject-2"><path d="M110.23,422.05l185,.79c45-35.3,49.61-87.61,17.53-119.32-19.41-19.18-44.06-15.31-67.54-18.36h-.06c-8.18-1.06-16.2-3-23.82-7-24.16-12.75-37.79-42.83-58.12-68.13-2.54-3.17-5.19-6.26-8-9.23-16.72-17.85-50-18.43-67.41,6.67C43.59,271.25,63.85,366.18,110.23,422.05Z" style="fill:#3B82F6"></path><path d="M110.23,422.05l185,.79c45-35.3,49.61-87.61,17.53-119.32-19.41-19.18-44.06-15.31-67.54-18.36h-.06c-8.18-1.06-16.2-3-23.82-7-24.16-12.75-37.79-42.83-58.12-68.13-2.54-3.17-5.19-6.26-8-9.23-16.72-17.85-50-18.43-67.41,6.67C43.59,271.25,63.85,366.18,110.23,422.05Z" style="opacity:0.2"></path><path d="M106.12,276.11C111,352,198.61,380.34,253.36,357.6c47.59-19.77,32-64.89-8.16-72.44h-.06c-8.18-1.06-16.2-3-23.82-7-24.16-12.75-37.79-42.83-58.12-68.13C132.9,194.3,102.57,220.54,106.12,276.11Z" style="opacity:0.1"></path></g><g id="freepik--Character--inject-2"><path d="M264.07,434.29c-2.61-1.11-60.33-52.31-61.3-55.66-.37-1.26,6.59-10.1,15.32-20.55,1.88-2.25,3.84-4.57,5.84-6.91,13-15.23,27.11-31.08,27.11-31.08l38.71,34.14-28.18,30.14L255.39,391s13.33,29.48,14,33.27S266.69,435.41,264.07,434.29Z" style="fill:#eb9481"></path><path d="M264.07,434.29c-2.61-1.11-60.33-52.31-61.3-55.66-.45-1.54,9.93-14.27,21.16-27.46l37.64,33.2L255.39,391s13.33,29.48,14,33.27S266.69,435.41,264.07,434.29Z" style="fill:#fff"></path><path d="M264.07,434.29c-2.61-1.11-60.33-52.31-61.3-55.66-.37-1.26,6.59-10.1,15.32-20.55L255.39,391s13.33,29.48,14,33.27S266.69,435.41,264.07,434.29Z" style="fill:#3B82F6"></path><path d="M265.29,431.25c-9.46-8.82-48.47-43.5-58.49-51.5-.09-.07-.13,0-.06.06,9.19,8.95,48.48,43.31,58.41,51.6C265.36,431.58,265.49,431.44,265.29,431.25Z" style="fill:#263238"></path><path d="M267.52,418.89a10.41,10.41,0,0,0-7.88-2.78,10.07,10.07,0,0,0-6.75,3.25c0,.06.06.16.12.11a12,12,0,0,1,14.4-.46C267.5,419.07,267.6,419,267.52,418.89Z" style="fill:#263238"></path><path d="M258.29,395.28c-3.82-3.49-9.52-6.11-14.74-5.07-.2,0-.14.32,0,.37a71.56,71.56,0,0,1,14.36,5.23A.32.32,0,0,0,258.29,395.28Z" style="fill:#263238"></path><path d="M260.25,399.1c-3.83-3.49-9.53-6.11-14.74-5.08-.21,0-.15.33,0,.37a71.6,71.6,0,0,1,14.36,5.24A.32.32,0,0,0,260.25,399.1Z" style="fill:#263238"></path><path d="M262.2,402.91c-3.82-3.49-9.52-6.1-14.74-5.07-.2,0-.14.33,0,.37a71.6,71.6,0,0,1,14.36,5.24A.33.33,0,0,0,262.2,402.91Z" style="fill:#263238"></path><path d="M264.16,406.73c-3.83-3.49-9.53-6.1-14.74-5.07-.21,0-.15.32,0,.37a71.6,71.6,0,0,1,14.36,5.24A.33.33,0,0,0,264.16,406.73Z" style="fill:#263238"></path><path d="M217.41,372.74c-4.35-3.84-10.33,2.93-6,6.77S221.78,376.59,217.41,372.74Z" style="fill:#fff"></path><path d="M271.64,388.66c-.51-3.37-4.39-4-7.1-3.35a27.07,27.07,0,0,0-12.3,6.78.14.14,0,0,0,0,.22.64.64,0,0,0,.42.93c4.45.53,9.14,1.66,13.62.82C268.92,393.57,272.14,391.84,271.64,388.66Zm-12.05,4c-2.19-.21-4.36-.53-6.56-.66a80.87,80.87,0,0,1,7.27-3.8,30.78,30.78,0,0,1,3.73-1.36c2-.53,8.65-.39,5.3,4.16C267.48,393.52,262.21,392.93,259.59,392.67Z" style="fill:#263238"></path><path d="M241.34,385c2.92,3.51,7.25,5.63,11,8.06a.64.64,0,0,0,.92-.45c.09,0,.17,0,.16-.15a27.21,27.21,0,0,0-5.15-13.08c-1.69-2.2-5.06-4.21-7.6-1.95S239.64,382.94,241.34,385Zm-.38-4.28c.33-5.65,5.55-1.49,6.73.18a29.31,29.31,0,0,1,2,3.43c1.26,2.44,2.16,5,3.17,7.57-1.78-1.31-3.65-2.45-5.48-3.69C245.22,386.73,240.78,383.82,241,380.71Z" style="fill:#263238"></path><path d="M333.68,294.68c-3.84,20.82-58.63,78.69-65,85.33l-1.44,1.51-41-35,.52-.61,40.18-47.35-112.24-6.43L199,261.13s3.36,2.17,10.6,1.49c25-2.35,81.24-7.51,94.39-6.3C321,257.89,337.21,275.57,333.68,294.68Z" style="fill:#455a64"></path><path d="M281.39,280.89a48.42,48.42,0,0,0-4.14,4.78c-1.42,1.67-2.86,3.33-4.28,5l0,.05c.26-.5.52-1,.79-1.5.92-1.69,1.69-3.45,2.77-5.06a.09.09,0,0,0-.16-.1c-1.1,1.59-2.36,3.1-3.33,4.79-.45.8-.88,1.6-1.28,2.42-.23.45-.45.9-.66,1.36a6.5,6.5,0,0,0-.27.66c-.64.78-1.27,1.56-1.89,2.36-1.36,1.77-2.58,3.65-3.95,5.41-.08.09.07.19.15.1,1.39-1.64,2.93-3.16,4.33-4.8s2.8-3.37,4.15-5.1,2.61-3.39,3.93-5.07a52.86,52.86,0,0,0,4-5.22C281.53,280.92,281.45,280.83,281.39,280.89Z" style="fill:#263238"></path><path d="M177.71,228.83c10.75,18.81,30.71,46.29,37.62,47.88,11.5,2.65,36.82,1.16,51.34-2.27,4.57-1.08-5.11-34.67-10.15-33.93-13,1.92-32.32,5.36-33.72,5.29-2.54-.13-20.45-14.42-34.1-25.59C175.81,209.67,172.64,220,177.71,228.83Z" style="fill:#eb9481"></path><path d="M281.45,266.16c-1.88,1-1.36,2,2.39,2.67s19.14.06,18.89,5.45-22,5.91-28.14,4.34S259,272.36,259,272.36C263.23,271.41,273.22,268.13,281.45,266.16Z" style="fill:#eb9481"></path><path d="M255.46,240.78c12-2.24,26.71-5.76,39.61-1.09a6.78,6.78,0,0,1,3.53,2.71c5.82,2,6.63,5.33,6.63,5.33,4.86,3.51,5.22,7.05,5.22,7.05s6.81,2.4,6,6.76c-.85,4.89-10.25.55-16.88,1.33-15.18,1.77-36.27,8.54-40.59,9.49Z" style="fill:#eb9481"></path><path d="M282.39,253.54a99.81,99.81,0,0,1,13.38-.8,99,99,0,0,1,14.54,2.13.12.12,0,0,0,.06-.23,52,52,0,0,0-28-1.3C282.16,253.39,282.17,253.57,282.39,253.54Z" style="fill:#263238"></path><path d="M280,244.54c4.38-.18,12.08-.45,25.21,3.33,0,0,.07-.06,0-.08A46.68,46.68,0,0,0,280,244.33C279.71,244.36,279.7,244.55,280,244.54Z" style="fill:#263238"></path><path d="M278.79,239.67c7.46,0,12.17.91,19.78,2.75a0,0,0,0,0,0-.08c-8.42-3-11.82-3.13-19.84-2.92C278.48,239.42,278.5,239.67,278.79,239.67Z" style="fill:#263238"></path><path d="M253.65,240.55l5.06,37.66s-39.66,3.88-46.24-1-29.92-36-35.88-49.28,2.44-16.15,11.89-8.68,33.35,25.21,34.42,25.23S253.65,240.55,253.65,240.55Z" style="fill:#263238"></path><path d="M130.35,303.14c.18.21,74.07-12,74.8-12.85,1-1.15-9.23-56.77-22.16-73.87-3.24-4.28-14.22-4.56-19.34-.68C138.27,235,129.69,302.4,130.35,303.14Z" style="fill:#ebebeb"></path><path d="M179.13,228.11c-3.34-.24-9.53-7.26-11.61-12.81-.14-.38.93-4,2-8.51.65-2.73,1.32-5.78,1.72-8.61L188.39,205a45.42,45.42,0,0,0-3.26,10.62,5.92,5.92,0,0,0,0,1.18,1.2,1.2,0,0,1,0,.19C185.12,219.27,184.36,228.49,179.13,228.11Z" style="fill:#eb9481"></path><path d="M185.08,216.82a1.19,1.19,0,0,1,0,.19,11.26,11.26,0,0,1-1.84-.16c-10.05-1.67-10.76-14.31-10.73-18.18L188.4,205a46.07,46.07,0,0,0-3.28,10.62A7.85,7.85,0,0,0,185.08,216.82Z" style="fill:#263238"></path><path d="M169.94,175.55c-2.27,6.24.11,24.75,4.4,29.07,6.23,6.27,16.91,7.41,22.36-.19,5.28-7.37,1.75-31.43-3.09-35.41C186.48,163.16,173.29,166.33,169.94,175.55Z" style="fill:#eb9481"></path><path d="M183,183.51c.54-.19,1-.46,1.52-.7a2.76,2.76,0,0,0,1.4-1,.86.86,0,0,0-.24-1,2.1,2.1,0,0,0-2.15,0,3.15,3.15,0,0,0-1.67,1.52A.92.92,0,0,0,183,183.51Z" style="fill:#263238"></path><path d="M195.29,182.3c-.57,0-1.09-.17-1.65-.26a2.68,2.68,0,0,1-1.62-.59.86.86,0,0,1-.06-1,2.16,2.16,0,0,1,2.07-.61,3.15,3.15,0,0,1,2,1A.92.92,0,0,1,195.29,182.3Z" style="fill:#263238"></path><path d="M185.26,198c.33.26.67.63,1.12.63a3.34,3.34,0,0,0,1.32-.45,0,0,0,0,1,.06.06,1.68,1.68,0,0,1-1.52.83,1.33,1.33,0,0,1-1.1-1C185.12,198,185.21,197.93,185.26,198Z" style="fill:#263238"></path><path d="M186.21,194.09a4.28,4.28,0,0,0,3,1.62,5.34,5.34,0,0,0,1.54-.08,1.36,1.36,0,0,0,.29-.06l.27-.07a.3.3,0,0,0,.22-.3h0a.61.61,0,0,0,0-.13h0v-.11c-.07-1-.3-2.42-.3-2.42.37.15,2.24.78,2.16.28a63.76,63.76,0,0,0-2.9-12.73c0-.13-.25-.08-.22.05.47,4,1.64,7.9,2.17,11.92a7.47,7.47,0,0,0-2.07-.42c-.13.06.51,2.81.5,3.24v0a6,6,0,0,1-4.54-.94C186.22,193.91,186.13,194,186.21,194.09Z" style="fill:#263238"></path><path d="M190.16,195.2a5,5,0,0,1-1.87,1.76,2.2,2.2,0,0,1-1.37.22c-1-.16-1.14-1.08-1-1.88a5.08,5.08,0,0,1,.33-1.24A6.59,6.59,0,0,0,190.16,195.2Z" style="fill:#263238"></path><path d="M188.29,197a2.2,2.2,0,0,1-1.37.22c-1-.16-1.14-1.08-1-1.88A2.36,2.36,0,0,1,188.29,197Z" style="fill:#ff9bbc"></path><path d="M183.66,187.76a1.86,1.86,0,0,0,.47.88,1.35,1.35,0,0,0,1,.37,1.27,1.27,0,0,0,.94-.57,2.14,2.14,0,0,0,.29-.94,4,4,0,0,0,0-.6,2.62,2.62,0,0,0-.35-1.17,4.43,4.43,0,0,1,0,.89,5.14,5.14,0,0,1-.13.8c-.13.53-.4,1-.82,1s-.79-.29-1-.8a8.61,8.61,0,0,1-.45-1.66A3.82,3.82,0,0,0,183.66,187.76Z" style="fill:#263238"></path><path d="M193.23,186.81a1.88,1.88,0,0,0,.35.94,1.34,1.34,0,0,0,1,.5,1.22,1.22,0,0,0,1-.44,2.13,2.13,0,0,0,.42-.89,3.09,3.09,0,0,0,.08-.59,2.59,2.59,0,0,0-.19-1.21,3.65,3.65,0,0,1-.1.88,5.92,5.92,0,0,1-.23.78c-.2.51-.53.93-1,.87s-.75-.39-.88-.93a9.17,9.17,0,0,1-.23-1.7A3.84,3.84,0,0,0,193.23,186.81Z" style="fill:#263238"></path><path d="M169.21,192.78c3.45-1.11,4.82-12.85,4.82-12.85s.14,4.95,1.07,4.8,4.5-7,4.76-11.84a37.54,37.54,0,0,0,9,4c4.45,1.17,9.32.71,9.3,0-.08-2.23-2.31-8-5.41-10A15.78,15.78,0,0,0,177,165.5c-7.11,3-8.84,7.7-9.78,11.32S167.94,193.19,169.21,192.78Z" style="fill:#263238"></path><path d="M173.07,190.7s-4-6.07-6.7-4.68.1,10.09,3.22,11.37A3.21,3.21,0,0,0,174,195.8Z" style="fill:#eb9481"></path><path d="M167.25,188.49a0,0,0,0,0,0,.09c2.18,1,3.28,3.06,4,5.22a1.78,1.78,0,0,0-2.64-.58c-.06,0,0,.14.06.12a2,2,0,0,1,2.15.77,9.73,9.73,0,0,1,1,1.79c.09.2.45.11.39-.12a.14.14,0,0,1,0-.06C172.34,192.9,170.27,188.88,167.25,188.49Z" style="fill:#263238"></path><path d="M189.36,164.64a27,27,0,0,0-7.28-2.89c-2.87-.62-12.07-.72-14.42.92s-3.69,10.2-3.86,11.45-.28,8.92,2.31,11,4-10.83,8.73-14.73S189.36,164.64,189.36,164.64Z" style="fill:#3B82F6"></path><path d="M189.36,164.65s-9.78,1.83-14.51,5.74-6.14,16.81-8.74,14.73c-1.14-.91-1.63-2.17-2-4.24.91-3.72,3-9.45,6.47-13.24,3.28-3.54,8.53-5,14-5.15A29.94,29.94,0,0,1,189.36,164.65Z" style="opacity:0.1"></path><path d="M166.19,192.87c.55-3.43,4.87-12.35,9-17.31s15.22-7.1,16.73-6.88c3.65.53,4.15,2.45,4.76,2.18s-2.28-4.07-3.26-4.78-3.62-2.41-5.22-2.51-11.52,0-15.46,3.88-10,15.19-9.38,18.28c.16.74,1.08,1.29,1.29,2.34.29,1.38.43,3,.76,3.93C165.68,192.79,166.14,193.16,166.19,192.87Z" style="fill:#3B82F6"></path><path d="M176.26,173.26a18.08,18.08,0,0,1-2.23-2,12.43,12.43,0,0,1-1.85-2.36c0-.06-.14,0-.11.05a10,10,0,0,0,1.64,2.61,8.45,8.45,0,0,0,2.45,1.83C176.26,173.48,176.34,173.32,176.26,173.26Z" style="fill:#263238"></path><path d="M166.46,189.42c-.07-.26-.22-.49-.31-.74a4,4,0,0,1-.25-.88,7.59,7.59,0,0,0-.25-1.71,6.43,6.43,0,0,0-.7-1.22,2.33,2.33,0,0,1-.56-1.46c0-.07-.1-.08-.11,0-.1,1,.54,1.85.92,2.77a11.1,11.1,0,0,1,.31,1.83,2.7,2.7,0,0,0,.79,1.52C166.36,189.57,166.49,189.51,166.46,189.42Z" style="fill:#263238"></path><path d="M168,185.8c-.29-.42-.61-.8-.87-1.26a11,11,0,0,1-.62-1.35c-.18-.46-.32-.93-.49-1.39s-.47-1.06-.65-1.62c0-.07-.12,0-.1,0,.18.57.26,1.18.42,1.76a10.63,10.63,0,0,0,.54,1.46,7.16,7.16,0,0,0,.7,1.31,3.93,3.93,0,0,0,1,1.09S168,185.83,168,185.8Z" style="fill:#263238"></path><path d="M169.53,182.54a9.92,9.92,0,0,1-1.69-2.28c-.43-.82-.82-1.67-1.19-2.52,0-.06-.13,0-.11,0a11.7,11.7,0,0,0,1,2.72,6.32,6.32,0,0,0,.79,1.17,6.71,6.71,0,0,0,1.16,1C169.5,182.66,169.58,182.59,169.53,182.54Z" style="fill:#263238"></path><path d="M171.18,179.44a3.57,3.57,0,0,1-.84-1c-.26-.41-.51-.83-.76-1.26l-.7-1.22a3.49,3.49,0,0,1-.51-1.32c0-.06-.11-.06-.11,0a3.49,3.49,0,0,0,.28,1.39,8.22,8.22,0,0,0,.66,1.41,12.49,12.49,0,0,0,.85,1.29,2.29,2.29,0,0,0,1,.85C171.18,179.6,171.26,179.49,171.18,179.44Z" style="fill:#263238"></path><path d="M172.52,175.43c-.29-.34-.58-.68-.84-1.05s-.51-.73-.75-1.11-.51-.79-.74-1.2c0-.07-.13,0-.1,0a8.71,8.71,0,0,0,.52,1.31,10.24,10.24,0,0,0,.73,1.19,9.91,9.91,0,0,0,.87,1.07,3.58,3.58,0,0,0,1,.89.08.08,0,0,0,.1-.11A6.88,6.88,0,0,0,172.52,175.43Z" style="fill:#263238"></path><path d="M179.07,171.53c-.3-.45-.6-.89-.94-1.32A14.45,14.45,0,0,0,177,169a14.93,14.93,0,0,0-2.51-2c-.05,0-.13,0-.08.08,1.51,1.54,3.08,3,4.57,4.58A.06.06,0,0,0,179.07,171.53Z" style="fill:#263238"></path><path d="M181.42,168.77a6.92,6.92,0,0,0-1.08-1.21,15.73,15.73,0,0,0-2.8-1.91c-.07,0-.13,0-.07.09.84.68,1.69,1.34,2.49,2.06a15.07,15.07,0,0,1,1.15,1.11c.35.4.61.87.95,1.28,0,0,.08,0,.07,0A4,4,0,0,0,181.42,168.77Z" style="fill:#263238"></path><path d="M184.4,167.67a7,7,0,0,0-1-1.2,8.4,8.4,0,0,0-2.39-1.7c-.05,0-.1.06-.05.1a16.25,16.25,0,0,1,2.22,1.93c.35.35.67.72,1,1.09a14.71,14.71,0,0,0,1,1.14s.07,0,.06,0A7.79,7.79,0,0,0,184.4,167.67Z" style="fill:#263238"></path><path d="M186.63,166.13c-.34-.32-.69-.63-1-.94a4.4,4.4,0,0,0-1.14-.77c-.07,0-.1.05-.06.1.66.62,1.3,1.26,2,1.89a11.8,11.8,0,0,1,1.44,2.05s.07,0,.07,0A4.49,4.49,0,0,0,186.63,166.13Z" style="fill:#263238"></path><path d="M189.26,165.81a7.27,7.27,0,0,0-2.17-1.64c-.06,0-.11.07-.05.1a9,9,0,0,1,2,1.76,12.51,12.51,0,0,1,1.47,2.19s.09,0,.07,0A5.77,5.77,0,0,0,189.26,165.81Z" style="fill:#263238"></path><path d="M192.52,167.65a5.45,5.45,0,0,0-.25-.55,6.22,6.22,0,0,0-.69-1,12.52,12.52,0,0,0-1.82-1.67.06.06,0,1,0-.07.09,9.77,9.77,0,0,1,1.69,1.71,7,7,0,0,1,.66,1c.1.17.18.34.27.51a2.45,2.45,0,0,0,.24.52.06.06,0,0,0,.1,0A1.52,1.52,0,0,0,192.52,167.65Z" style="fill:#263238"></path><path d="M194.57,168a6.7,6.7,0,0,0-.56-.83,6.78,6.78,0,0,0-.66-.76c-.24-.24-.49-.47-.72-.72a.06.06,0,1,0-.08.08,6.35,6.35,0,0,1,.67.79l.58.77.58.78a7.91,7.91,0,0,0,.58.81s.09,0,.08-.05A4.06,4.06,0,0,0,194.57,168Z" style="fill:#263238"></path><path d="M260.71,248.39s19-8.78,19-20.51S255,208.63,255,199.46s10.72-14.57,10.72-14.57-17,5.82-16.94,17.42,16.27,19.42,17.84,26.8C268.78,239.35,260.71,248.39,260.71,248.39Z" style="fill:#ebebeb;opacity:0.6000000000000001"></path><path d="M261.65,248.39s-19-6.86-19-16.08,24.61-15.2,24.6-22.41-10.76-11.43-10.76-11.43,17,4.53,17,13.65S254.83,227.54,253.51,235,261.65,248.39,261.65,248.39Z" style="fill:#ebebeb;opacity:0.6000000000000001"></path><rect x="251.92" y="277.88" width="18.07" height="2.82" transform="translate(-0.44 0.41) rotate(-0.09)" style="fill:#3B82F6"></rect><rect x="251.92" y="277.88" width="18.07" height="1.86" transform="translate(-0.43 0.41) rotate(-0.09)" style="fill:#263238"></rect><path d="M230.46,270.35a10.06,10.06,0,0,0,12,3.81,13.43,13.43,0,0,0,2.55-1.35l-2.3-3.4a8.28,8.28,0,0,1-1.36.77,6,6,0,0,1-7.56-2.2c-2.49-3.48-3.39-11.43-.88-14.49.17-.23.89-.59,3.8,0,.54.12,1.15.25,1.84.44a6.77,6.77,0,0,0,1.65.35l.07-2,.2-2c-.19,0-.49-.12-.87-.23a26.19,26.19,0,0,0-4.11-.84c-2.14-.22-4.38,0-5.76,1.73C225.68,255.89,227.35,266,230.46,270.35Z" style="fill:#3B82F6"></path><path d="M242.73,269.41a8.28,8.28,0,0,1-1.36.77l1.11,4a13.43,13.43,0,0,0,2.55-1.35Z" style="fill:#263238"></path><path d="M235.51,249.16l1.22,4.36c.54.12,1.15.25,1.84.44a6.77,6.77,0,0,0,1.65.35l.07-2,.2-2c-.19,0-.49-.12-.87-.23A26.19,26.19,0,0,0,235.51,249.16Z" style="fill:#263238"></path><path d="M284.94,243.75s-2.14,18.42-5.87,26.18-9,8.63-12.21,8.63H255.05c-3.25,0-8.47-.85-12.23-8.59s-5.95-26.16-5.95-26.16Z" style="fill:#3B82F6"></path><g style="opacity:0.1"><path d="M282.39,259.05c-.37,1.7-.77,3.37-1.22,5l-40.47.06c-.45-1.58-.86-3.26-1.24-4.95Z"></path><path d="M280.61,265.88c-.27.88-.56,1.72-.86,2.48l-37.61.06c-.31-.76-.6-1.6-.88-2.47Z"></path><path d="M283.32,254.4c-.15.8-.31,1.63-.48,2.47l-43.83.07c-.18-.84-.34-1.67-.48-2.47Z"></path></g><path d="M155.23,229.3c-10.83,29.59-10.4,55.46-6.18,59.73,9.22,9.3,49.27-1,59.28-2.4,4-.56-8.17-32.92-12.4-31.81-10,2.61-24.13,7.53-24.64,7.38-1-.29,0-9.24-1.32-32.92C168.93,210.12,159.66,217.2,155.23,229.3Z" style="fill:#eb9481"></path><path d="M246.53,248.9c.27,4-9.67,3.84-9.67,3.84a7.47,7.47,0,0,1,3.27,3.85c.93,2.9-3.22,5.64-3.22,5.64a9.12,9.12,0,0,1,2.8,4.6c.61,2.88-3.19,6.24-3.19,6.24a8.34,8.34,0,0,1-.08,5.59c-3.28,7.91-25.42,9.39-31.82,8.48l-10.41-31.09S212,242.9,220.94,242C225.91,241.44,246.11,242.77,246.53,248.9Z" style="fill:#eb9481"></path><path d="M236.77,252.64c-5.34-1.2-11-1.11-16.36-1-.12,0-.12.18,0,.19,5.38.17,10.94,1,16.32,1A.13.13,0,0,0,236.77,252.64Z" style="fill:#263238"></path><path d="M236.82,262.06a14.55,14.55,0,0,0-3.73,0c-1.32.1-2.63.23-4,.37q-3.94.44-7.86,1.06c-.11,0-.11.2,0,.19,2.62-.28,5.24-.53,7.87-.7l4-.23a17.12,17.12,0,0,0,3.72-.35A.2.2,0,0,0,236.82,262.06Z" style="fill:#263238"></path><path d="M236.41,273.07a10,10,0,0,0-3.35.21l-3.59.45c-2.39.28-4.79.57-7.19.77-.12,0-.11.2,0,.19,2.44-.2,4.88-.36,7.32-.57l3.6-.34a9.23,9.23,0,0,0,3.22-.59S236.47,273.09,236.41,273.07Z" style="fill:#263238"></path><path d="M237,275.78a6.67,6.67,0,0,1-1.2,4.47,9.41,9.41,0,0,1-3.69,3,40.64,40.64,0,0,1-8.87,3.05,58.93,58.93,0,0,1-9.26,1.37,51.23,51.23,0,0,1-9.35-.21h.08q-3.5.63-7,1.15,3.44-.9,6.9-1.71h.08a61.82,61.82,0,0,0,9.23-.16,70.45,70.45,0,0,0,9.12-1.38,49.59,49.59,0,0,0,8.78-2.72,9.34,9.34,0,0,0,3.65-2.59A6.75,6.75,0,0,0,237,275.78Z" style="fill:#263238"></path><path d="M194.57,254.21l6.67,36.39s-49.36,9.71-54.23-2,1.45-49.08,9.54-63.81,13-6.78,13.86,3.84,1.31,32,1.53,31.95S194.57,254.21,194.57,254.21Z" style="fill:#263238"></path><path d="M422.92,387.8c-1.12,2.61-52.51,60.16-55.86,61.12-1.27.37-10.08-6.63-20.5-15.38-2.25-1.89-4.56-3.86-6.9-5.87-15.18-13-31-27.2-31-27.2l34.26-38.6,30,28.27,6.6,6.2s29.53-13.24,33.32-13.89S424,385.19,422.92,387.8Z" style="fill:#eb9481"></path><path d="M422.92,387.8c-1.12,2.61-52.51,60.16-55.86,61.12-1.54.44-14.24-10-27.4-21.25L373,390.14l6.6,6.2s29.53-13.24,33.32-13.89S424,385.19,422.92,387.8Z" style="fill:#fff"></path><path d="M422.92,387.8c-1.12,2.61-52.51,60.16-55.86,61.12-1.27.37-10.08-6.63-20.5-15.38l33-37.2s29.53-13.24,33.32-13.89S424,385.19,422.92,387.8Z" style="fill:#3B82F6"></path><path d="M419.88,386.57C411,396,376.22,434.9,368.19,444.9c-.07.08,0,.13.06.05,9-9.16,43.47-48.33,51.79-58.24C420.21,386.5,420.07,386.37,419.88,386.57Z" style="fill:#263238"></path><path d="M407.52,384.3a10.46,10.46,0,0,0-2.8,7.88,10.09,10.09,0,0,0,3.23,6.75c.06.05.16-.05.1-.11a12,12,0,0,1-.41-14.41C407.71,384.33,407.59,384.23,407.52,384.3Z" style="fill:#263238"></path><path d="M383.88,393.45c-3.5,3.82-6.13,9.51-5.12,14.73,0,.2.33.14.37,0a71.45,71.45,0,0,1,5.29-14.35A.33.33,0,0,0,383.88,393.45Z" style="fill:#263238"></path><path d="M387.71,391.51c-3.5,3.81-6.14,9.51-5.12,14.73,0,.2.32.14.37,0a71.33,71.33,0,0,1,5.28-14.34A.32.32,0,0,0,387.71,391.51Z" style="fill:#263238"></path><path d="M391.53,389.57c-3.5,3.81-6.13,9.5-5.12,14.72,0,.21.33.15.37,0a71.67,71.67,0,0,1,5.29-14.35A.33.33,0,0,0,391.53,389.57Z" style="fill:#263238"></path><path d="M395.36,387.62c-3.51,3.82-6.14,9.51-5.12,14.73,0,.2.32.14.36,0A71.45,71.45,0,0,1,395.89,388,.32.32,0,0,0,395.36,387.62Z" style="fill:#263238"></path><path d="M361.22,434.26c-3.86,4.34,2.89,10.34,6.75,6S365.08,429.91,361.22,434.26Z" style="fill:#fff"></path><path d="M377.31,380.08c-3.37.51-4,4.38-3.38,7.09a27.29,27.29,0,0,0,6.74,12.33.14.14,0,0,0,.22,0,.63.63,0,0,0,.93-.42c.56-4.45,1.7-9.13.87-13.62C382.21,382.82,380.49,379.6,377.31,380.08Zm4,12.07c-.22,2.19-.54,4.36-.68,6.56-1.31-2.41-2.71-4.75-3.78-7.28a31.44,31.44,0,0,1-1.34-3.74c-.53-2-.37-8.65,4.17-5.28C382.16,384.26,381.54,389.53,381.28,392.15Z" style="fill:#263238"></path><path d="M373.54,410.37c3.52-2.9,5.66-7.22,8.09-11a.62.62,0,0,0-.44-.91c0-.09,0-.17-.15-.16a27,27,0,0,0-13.09,5.1c-2.21,1.68-4.23,5-2,7.6S371.49,412.06,373.54,410.37Zm-4.28.37c-5.65-.35-1.47-5.56.2-6.73a28.79,28.79,0,0,1,3.44-2,79.36,79.36,0,0,1,7.57-3.14c-1.31,1.77-2.45,3.64-3.7,5.46C375.29,406.5,372.37,410.93,369.26,410.74Z" style="fill:#263238"></path><path d="M371.62,384l-35.83,43.47-109-84.25-10.52-8.13s-3.19,1.91-8,4.24c-6.64,3.24-16.33,7.27-24.76,8.07-14.14,1.36-37.56-.07-48.57-16.5-9.28-13.83-3-30.93-3-30.93l15.75-5.82s38-28.51,61.7-28.21c10.06.12,24.27,8.47,37.39,17.11S371.62,384,371.62,384Z" style="fill:#455a64"></path><path d="M216.26,335.07s-3.19,1.91-8,4.24c-7.71-10.25-24.18-29-24.67-29.67Z" style="fill:#263238"></path><path d="M161.62,284.65c-2.26,1.4-4.45,2.9-6.68,4.34s-4.45,2.74-6.55,4.31-4.16,3.3-6.18,5c-1,.84-1.94,1.68-2.89,2.55a24.46,24.46,0,0,0-2.77,2.71c-.08.09.06.22.15.16a27.57,27.57,0,0,0,3-2.23c1.07-.8,2.12-1.62,3.18-2.43,2.05-1.57,4.13-3.08,6.17-4.66s3.92-3.28,5.93-4.86,4.41-3.26,6.64-4.85C161.7,284.69,161.67,284.62,161.62,284.65Z" style="fill:#263238"></path><path d="M363.83,382c-2.29,2.24-4.44,4.66-6.59,7s-4.31,4.78-6.45,7.18c-4.28,4.81-8.59,9.6-12.8,14.47-2.31,2.68-4.59,5.37-6.76,8.17-.1.13.1.28.21.17,4.57-4.53,8.78-9.39,13.05-14.2s8.53-9.65,12.74-14.53c2.3-2.67,4.66-5.33,6.79-8.13C364.11,382,363.93,381.85,363.83,382Z" style="fill:#263238"></path><path d="M271,377.64c-5.39-4.72-11-9.21-16.63-13.66s-11.17-8.89-16.86-13.2c-1.63-1.24-3.28-2.46-4.92-3.68s-3.36-2.35-5-3.61c-.09-.07-.18.09-.09.16,1.47,1.17,2.85,2.48,4.3,3.69s2.75,2.34,4.14,3.48c2.71,2.24,5.46,4.44,8.2,6.64q8.34,6.72,16.84,13.23c3.22,2.46,6.42,4.93,9.72,7.28C271,378.11,271.22,377.8,271,377.64Z" style="fill:#263238"></path><path d="M309.58,332.86c-5-4.57-10.34-8.73-15.59-13s-10.57-8.66-15.9-12.94l-15.85-12.75c-5.12-4.12-10.22-8.3-15.66-12-3-2-6.05-3.92-9.21-5.64a61.93,61.93,0,0,0-9.58-4.5.1.1,0,0,0-.08.17c2.69,1.69,5.54,3.14,8.26,4.77s5.35,3.32,7.95,5.08c5.4,3.67,10.47,7.78,15.57,11.86,10.58,8.47,21.14,17,31.81,25.33,6,4.68,11.79,9.6,18,13.94C309.51,333.32,309.76,333,309.58,332.86Z" style="fill:#263238"></path></g><g id="freepik--Table--inject-2"><rect x="68.55" y="374.86" width="156.96" height="11.28" style="fill:#37474f"></rect><polygon points="102.86 386.15 98.68 395.59 78.26 441.76 73.04 441.76 86.77 395.59 89.57 386.15 102.86 386.15" style="fill:#37474f"></polygon><polygon points="89.57 386.15 102.86 386.15 98.68 395.59 86.77 395.59 89.57 386.15" style="fill:#263238"></polygon><polygon points="221.03 441.76 215.81 441.76 195.39 395.59 191.22 386.15 204.5 386.15 207.31 395.59 221.03 441.76" style="fill:#37474f"></polygon><polygon points="207.31 395.59 195.39 395.59 191.22 386.15 204.5 386.15 207.31 395.59" style="fill:#263238"></polygon><rect x="93.06" y="361.5" width="67.73" height="13.36" style="fill:#3B82F6"></rect><rect x="97.28" y="361.5" width="6.62" height="13.36" style="fill:#37474f"></rect><rect x="106.35" y="361.5" width="2.76" height="13.36" style="fill:#37474f"></rect><rect x="146.21" y="361.5" width="6.62" height="13.36" style="fill:#37474f"></rect><rect x="89.13" y="351.53" width="46.98" height="9.97" style="fill:#455a64"></rect><rect x="136.11" y="351.53" width="20.27" height="9.97" style="fill:#455a64"></rect><rect x="89.13" y="352.56" width="46.98" height="7.9" style="fill:#fff"></rect><path d="M92.17,354.19c3.66-.09,7.32-.16,11-.19l11-.06,11,.06c3.66,0,7.32.1,11,.19-3.66.09-7.32.16-11,.19l-11,.06-11-.06C99.49,354.35,95.83,354.28,92.17,354.19Z" style="fill:#dbdbdb"></path><path d="M92.17,355.74c3.66-.09,7.32-.16,11-.19l11-.06,11,.06c3.66,0,7.32.1,11,.19-3.66.09-7.32.16-11,.19l-11,.06-11-.06C99.49,355.9,95.83,355.83,92.17,355.74Z" style="fill:#dbdbdb"></path><path d="M92.17,357.29c3.66-.09,7.32-.16,11-.19l11-.06,11,.06c3.66,0,7.32.1,11,.19-3.66.09-7.32.16-11,.19l-11,.06-11-.06C99.49,357.45,95.83,357.38,92.17,357.29Z" style="fill:#dbdbdb"></path><path d="M92.17,358.84c3.66-.09,7.32-.16,11-.19l11-.06,11,.06c3.66,0,7.32.1,11,.19-3.66.09-7.32.16-11,.19l-11,.06-11-.06C99.49,359,95.83,358.93,92.17,358.84Z" style="fill:#dbdbdb"></path><rect x="99.66" y="340.6" width="47.02" height="10.93" style="fill:#37474f"></rect><rect x="137.31" y="340.6" width="4.38" height="10.93" style="fill:#3B82F6"></rect><rect x="132.74" y="340.6" width="1.7" height="10.93" style="fill:#3B82F6"></rect></g><g id="freepik--Plant--inject-2"><path d="M392.12,261.42a86.81,86.81,0,0,1,2-14.18c1-4.2,2.42-8.49,5.06-12a15.17,15.17,0,0,1,9.93-6.18c3.89-.48,7.54,1.25,10.45,3.7,3.6,3,6.36,7.06,8.95,10.95a133.25,133.25,0,0,1,7.74,13.54c.08.15-.16.28-.24.13a83.41,83.41,0,0,0-6.91-11.33,70.73,70.73,0,0,0-8-9.64c-2.67-2.61-6.06-5-9.92-5.17a12.21,12.21,0,0,0-9.72,5c-2.59,3.31-3.91,7.45-4.9,11.49a86.58,86.58,0,0,0-2,13.49c-.76,9.34-1,18.74-1.18,28.1-.12,5.3-.19,10.6-.24,15.9l-.06,8.06a50.23,50.23,0,0,1-.31,7.76c-.09.52-.94.47-1,0a46.36,46.36,0,0,1-.36-7.36l-.09-7.64c0-4.95-.07-9.9-.05-14.84C391.33,281.3,391.45,271.33,392.12,261.42Z" style="fill:#263238"></path><path d="M405.47,254.37c.49-2.64,1.39-6.08,2.89-8.12,2.7-3.68,5.62-2.08,2.92,2a24.37,24.37,0,0,0-3.79,10s4.54,6.49,10,9.69c-.24-2.5-.94-6.34-.45-10,1.05-8,5.9-7.57,4.7-1.2a55.47,55.47,0,0,0-1.1,12.89,27.84,27.84,0,0,0,5.86,2.87c-.31-.93-.64-2.05-1-3.4-1.95-7.19,2.84-9.43,3-5.39a56,56,0,0,0,1.86,10.2c2.63.88,4.81,1.49,6.15,2a22.38,22.38,0,0,1,9,6.14,28.3,28.3,0,0,0,6.13-7.93c-1.68-1.44-4.33-3.58-8-6.18-6.9-4.86-4.5-11,1-7.19,3.95,2.76,7,7.87,8.39,10.49a42.58,42.58,0,0,0,3.12-14.36c-5.41-5.08-18.8-12.16-14.76-12.16,3.63,0,11.76,5.33,14.74,7.38a39.39,39.39,0,0,0-.46-4.17c-5.1-3.34-21.67-8.54-19-10,2.9-1.64,14.46,3.71,18,5.41a21.21,21.21,0,0,0-3.07-6.35c-7-9.43-19.75-12.68-25.29-10.88-3.93,1.27-2.78,11.22-3.62,10.88C406.84,230.56,399.67,235,405.47,254.37Zm38.63-1.09c1.11-1.35,6.29,2.63,4.79,4.8S442.65,255,444.1,253.28Zm-27-8.48c1.36.86-.65,5.89-2.74,4.37C412.54,247.87,415.7,243.92,417.07,244.8Z" style="fill:#3B82F6"></path><path d="M419.14,246.34c.71-1.41,1.45-2.81,2.26-4.16a23.43,23.43,0,0,1,2.61-3.77c-.23-.28-.45-.56-.68-.83-.09-.11.07-.27.17-.16l.77.91a.28.28,0,0,1,.11.13q1.46,1.75,2.76,3.6a42.77,42.77,0,0,1,4.58,1.32c1.55.52,3.08,1.06,4.58,1.69.16.07.08.33-.08.26-1.48-.66-3-1.3-4.54-1.82s-2.94-.87-4.42-1.29c.48.68.95,1.37,1.41,2.06a55.12,55.12,0,0,1,8.09,3.3c2.73,1.3,5.37,2.81,8,4.33.14.08,0,.31-.14.22-2.57-1.53-5.24-2.84-7.95-4.11-2.53-1.19-5.16-2.16-7.71-3.29,6.43,10,10.29,21.63,15.45,32.36.08.16-.17.28-.23.13-1.58-3.76-3.39-7.43-5.11-11.13-1.54-3.32-3-6.66-4.58-10-.45-1-.92-1.94-1.39-2.91.28,5.37.17,10.82,1.05,16.12a.13.13,0,1,1-.26,0c-.38-5.73-1.39-11.37-1.35-17.14,0,0,0,0,0-.07-1.1-2.19-2.26-4.35-3.52-6.46-2.13,5-4.37,10.12-5.36,15.51,0,.16-.3.09-.26-.08,1.45-5.4,2.79-10.81,5.4-15.81a61.34,61.34,0,0,0-4.54-6.53c-.71,1.33-1.63,2.6-2.44,3.87s-1.58,2.5-2.31,3.78a54.17,54.17,0,0,0-4,8.51c-.06.16-.33.08-.26-.08C416.49,252,417.73,249.11,419.14,246.34Z" style="fill:#263238"></path><path d="M368.41,258.55c4.13-4.14,8.93-9.58,15.31-9.57,6.16,0,10.69,5,13.3,10.09,2.72,5.35,3.7,11.41,4.47,17.3a210.09,210.09,0,0,1,1.63,21.27c.11,3.95.1,7.91,0,11.86a78.46,78.46,0,0,1-.9,12c-.12.64-1.14.66-1.18,0-.18-3.32-.05-6.67,0-10s0-6.55-.16-9.83c-.24-6.63-.72-13.24-1.5-19.83-.68-5.75-1.22-11.67-2.94-17.23-1.55-5-4.47-10.74-9.55-12.94-6.93-3-13.7,2.48-18.24,7.12C368.5,258.84,368.29,258.67,368.41,258.55Z" style="fill:#263238"></path><path d="M347.34,267.8h0c0,.85.08,1.68.14,2.5a15,15,0,0,1,6.77-2.8c5.86-.62,5.48,3.83,1.57,4a22.26,22.26,0,0,0-8,1.61c1,7.74,3.08,14,3.4,14.05a114,114,0,0,0,15.49-2c-1.46-3.11-4.78-7.23-3.09-7.57s3.54,3.34,4.48,7.28a72.51,72.51,0,0,0,11.26-3.09c-2.57-2.24-6.56-5-5-6.2s4.69,2.73,6.58,5.57a22.26,22.26,0,0,0,4.87-2.71c-3.47-5.1-11.94-6.14-10.83-9.83s9,1.43,12.58,8.26c4.18-4.33,5.4-10.46,5-15.7-3.64-.42-10.64.34-10.13-2.27s5.56-2.12,9.7-.59a14.49,14.49,0,0,0-2.43-5.76c-3.83-4.92-15.53,1.34-15.53,1.34s1.25-11.76-3.21-13.79c-2.57-1.17-7.11-1.16-11.66,1.52,2.55.21,5.64,1,6.88,2.79,1.58,2.26-.92,3.49-2.51,2.45-1.12-.74-3.22-3.07-7-3.37a23.12,23.12,0,0,0-4.23,4.67c-.43.61-.83,1.25-1.23,2a16.06,16.06,0,0,1,13.7.24c5.07,2.52,2.24,7.79-2.13,5.74s-8.52-4.06-13.14-2.9a32.72,32.72,0,0,0-2.23,13.12,22.94,22.94,0,0,1,7.51-3.61c5.05-1.32,6.57,1.69,1,2.25A22.26,22.26,0,0,0,347.34,267.8Zm6.14-8.09c-.35-1.64,3.23-2.11,3.82-.78C357.8,260.06,353.82,261.34,353.48,259.71Zm30.6,9c.33-.89,2.73.13,2.51,1.24C386.29,271.47,383.75,269.65,384.08,268.75Zm-16.9,5.74c1.75-.7,4.47,3.64,2.57,4.63S365.76,275.06,367.18,274.49Z" style="fill:#3B82F6"></path><path d="M351.86,286.29c2.63-4.39,5.23-8.81,8-13.12q1.93-3,4-5.91c-.21-.05-.42-.11-.63-.15s-.69-.14-1-.2c-.81-.14-1.62-.26-2.44-.34s-1.54-.12-2.31-.13a11.25,11.25,0,0,0-2.46.13c-.1,0-.12-.14,0-.13.82,0,1.66-.08,2.48-.09s1.6,0,2.4.06,1.49.12,2.23.23c.41.06.82.14,1.23.22a6.47,6.47,0,0,1,.74.15c1.42-2,2.9-3.87,4.42-5.75a52.84,52.84,0,0,0-14.38-4.6c-.09,0-.06-.14,0-.12A48.61,48.61,0,0,1,368.72,261c.84-1,1.69-2.06,2.54-3.08s2-2.26,2.83-3.47c.05-.08.17,0,.1.08a48.89,48.89,0,0,0-3.33,4.08h0a50.33,50.33,0,0,1,5.35,4.3c1.75,1.55,3.46,3.15,5.11,4.8a.06.06,0,1,1-.09.09c-1.64-1.62-3.34-3.18-5.11-4.66s-3.65-2.83-5.43-4.29l0,0c-.4.54-.81,1.08-1.22,1.61-.21.26-.41.53-.62.8a.13.13,0,0,1,0,.06c-.69.89-1.37,1.78-2,2.68a22.15,22.15,0,0,1,2,3.66c.59,1.24,1.1,2.53,1.57,3.81a55.89,55.89,0,0,1,2.19,8.24c0,.08-.11.12-.13,0a47.7,47.7,0,0,0-2.39-8.08c-.51-1.34-1.09-2.65-1.69-4s-1.21-2.33-1.72-3.53c-.59.78-1.17,1.57-1.75,2.36l-.5.7c0,.05,0,.12-.05.12h0c-1.81,2.52-3.52,5.1-5.2,7.71a2,2,0,0,1,.23.57c.11.32.21.64.31,1,.18.65.33,1.3.45,2s.2,1.24.27,1.87a16.81,16.81,0,0,0,.15,2.13c0,.1-.14.11-.13,0a6.69,6.69,0,0,0-.14-2c-.1-.67-.22-1.35-.38-2s-.3-1.2-.48-1.79c-.09-.3-.19-.6-.29-.89s-.13-.32-.18-.49c-.79,1.23-1.56,2.46-2.33,3.7l-4.52,7.38A.11.11,0,0,1,351.86,286.29Z" style="fill:#263238"></path><path d="M392.4,320c.07-2.49.46-5,.73-7.48s.55-5,.82-7.46c.51-4.8.79-9.7,1.92-14.4a20.92,20.92,0,0,1,5.86-10.77,9.57,9.57,0,0,1,5.75-2.74,9.93,9.93,0,0,1,6.1,1.88,21.43,21.43,0,0,1,5.13,5.4,54.75,54.75,0,0,1,4,6.5c0,.09-.09.14-.14.06a33.17,33.17,0,0,0-8.65-9.7,10.25,10.25,0,0,0-5.46-2.27,7.38,7.38,0,0,0-5.29,2.11c-2.9,2.52-4.58,6.24-5.59,9.88a101.25,101.25,0,0,0-2.16,13.3q-.53,4-1,7.91c-.35,2.62-.57,5.31-1.13,7.9A.43.43,0,0,1,392.4,320Z" style="fill:#263238"></path><path d="M404.65,300.7a13.84,13.84,0,0,0,2.71,2.76c-.41-2.43-.91-6.74.32-9,1.9-3.57,4.16-1.79,3,1.31a25.25,25.25,0,0,0-1.83,8.8,38.16,38.16,0,0,0,8.27,3.9,14,14,0,0,1-.27-4.25c.38-3.82,3.3-3.75,2.54.22a24.89,24.89,0,0,0-.4,4.66,86.3,86.3,0,0,0,12.9,2.91,37.44,37.44,0,0,0,5.33-9.5c-3.11-.78-9.4-1-9.26-3.17.18-3,6.27-.69,9.84,1.48a23.92,23.92,0,0,0,1.07-8,39.87,39.87,0,0,0-8.57-1.42c-6.39-.55-6.08-4.18-1.44-4.1,3.42.07,7.74,2.16,9.79,3.25-1.33-8.7-8-14.28-13.29-14.49-8.95-.36-5.73,10.77-5.73,10.77s-6.06-4.26-11.78-4.15S398.53,292.19,404.65,300.7Zm23.89-16.1c-.19-1.25,3.8-1.55,4,.06C432.78,286.46,428.75,285.88,428.54,284.6ZM435,297.66c-.08-.81,1.64-1,2,.07C437.26,298.41,435,298.47,435,297.66Zm-21.48.77c1.34.19,2.11,5-.21,4.91C411.51,303.27,412.34,298.26,413.49,298.43Z" style="fill:#3B82F6"></path><path d="M415.35,303.78c.22-.6.42-1.21.61-1.82-.17.62-.33,1.24-.44,1.87A.09.09,0,1,1,415.35,303.78Z" style="fill:#263238"></path><path d="M417.71,296c.42-1.23.89-2.46,1.37-3.67.26-.65.53-1.29.81-1.93a8.06,8.06,0,0,1,.8-1.61,12.23,12.23,0,0,1-.73-1.56c0-.05.05-.09.08-.05a18.33,18.33,0,0,1,1.75,2.7c.25.42.48.85.73,1.28a12.63,12.63,0,0,1,1.5.23c.54.1,1.07.21,1.6.33l1.6.37c.53.13,1,.3,1.59.38.12,0,.07.22-.05.17a10.81,10.81,0,0,0-1.67-.44c-.52-.11-1-.2-1.55-.27s-1-.14-1.57-.19l-1.18-.1c.21.38.44.75.64,1.13a1,1,0,0,1,.1.18,4.62,4.62,0,0,1,1.28.15c.47.08.93.17,1.39.27.93.21,1.86.43,2.78.68,1.94.54,3.85,1.16,5.76,1.79.1,0,0,.19-.07.16a55,55,0,0,0-5.78-1.61c-.92-.2-1.83-.41-2.75-.6l-1.38-.3a9.23,9.23,0,0,1-1.07-.23c1,1.81,1.91,3.66,2.76,5.55,1.86,4.1,3.42,8.33,5,12.54,0,.11-.12.18-.16.07A111.85,111.85,0,0,0,426,299.19c-.35-.73-.72-1.46-1.08-2.18,0,.15-.07.29-.1.44-.09.5-.18,1-.26,1.5-.17,1-.34,2-.49,3a35.41,35.41,0,0,0-.72,6.22c0,.13-.19.12-.17,0,.16-1,.16-2,.22-3s.14-2.09.26-3.13.25-2,.42-3c.08-.5.17-1,.26-1.49a2.83,2.83,0,0,1,.28-1.09c-.53-1.05-1-2.1-1.57-3.15s-1-2-1.52-2.94c-.21-.41-.45-.83-.68-1.25a11.52,11.52,0,0,1-.59,1.51l-.69,1.69c-.51,1.25-1,2.51-1.47,3.77-.67,1.79-1.42,3.62-2,5.48C416.64,299.7,417.1,297.84,417.71,296Z" style="fill:#263238"></path><path d="M416,302c0-.15.09-.29.13-.44C416.05,301.67,416,301.81,416,302Z" style="fill:#263238"></path><polygon points="377.44 315.19 378.07 328.51 379.69 362.84 415.1 362.84 416.72 328.51 417.35 315.19 377.44 315.19" style="fill:#37474f"></polygon><polygon points="377.44 315.19 378.07 328.51 416.72 328.51 417.35 315.19 377.44 315.19" style="fill:#263238"></polygon><rect x="374.92" y="309.81" width="44.95" height="10.77" transform="translate(794.79 630.39) rotate(180)" style="fill:#37474f"></rect><rect x="406.02" y="362.84" width="6.22" height="5.64" style="fill:#37474f"></rect><rect x="406.02" y="362.84" width="6.22" height="2.82" style="fill:#263238"></rect><rect x="382.55" y="362.84" width="6.21" height="5.64" style="fill:#37474f"></rect><rect x="382.55" y="362.84" width="6.21" height="2.82" style="fill:#263238"></rect></g></svg>