<?xml version="1.0" encoding="utf-8"?>
<!-- Generator: Adobe Illustrator 24.1.1, SVG Export Plug-In . SVG Version: 6.00 Build 0)  -->
<svg version="1.1" id="Layer_1" xmlns="http://www.w3.org/2000/svg" xmlns:xlink="http://www.w3.org/1999/xlink" x="0px" y="0px"
	 viewBox="0 0 737 522" style="enable-background:new 0 0 737 522;" xml:space="preserve">
<style type="text/css">
	.st0{fill:none;stroke:#FFFFFF;stroke-width:0.8285;stroke-miterlimit:10;}
	.st1{fill:#030202;}
</style>
<g>
	<g>
		<g>
			<path d="M552.1,270.8c-4.9,9.5-11.1,17.8-18.3,25.7c-1.1,1.2-1.1,1.2-2.1,2.3c-9.7,10.3-21.5,17.6-34.4,23.4c-1,0.5-2,0.9-3,1.4
				c-22.6,10-50,9.3-73.6,3.1c0,0,0,0-0.1,0c-2.5-0.4-4.9-0.4-7.5-0.4c-0.2,0-0.5,0.2-0.5,0.5v1.4c0.1,5.9,0.1,11.8,0.1,17.7
				c0,3.1,0,6,0.1,9.1c0,2.9,0.1,5.9,0.1,8.8c0,1.7,0,3.3,0.1,5c0,6.2-0.3,12.1-2.7,17.9c0,0.1-0.1,0.2-0.2,0.2
				c-1.7,1.7-1.8,1.7-4.1,2.4l-2.4,0.8c0,0,0,0-0.1,0c-4.3,1.2-8.6,1-13.1,1c-1.2,0-1.2,0-2.6,0c-16.3-0.1-16.4-0.1-21.6-5.1
				l-0.1-0.1c-3.8-6.5-3.7-13.3-3.6-20.7v-20.9c0-19.6,0.7-39.1,3.5-58.5c0.2-1.5,0.2-1.5,0.4-3.1c5.1-34.5,19.1-79.6,48.6-101.5
				c2-1.3,4.1-2.6,6.1-3.8c0.5-0.3,1-0.6,1.5-0.9c1.4-0.7,1.4-0.8,3.7-1.8c0.1-0.1,0.2-0.1,0.3,0l1.8,0.6c0.2,0.1,0.4,0.4,0.3,0.7
				c-0.9,2.4-2,4.6-3.1,7c-3.4,6.9-6.5,13.7-8.7,21c-0.2,0.7-0.4,1.2-0.6,1.9c-3.4,11.8-3.5,23.8-3.5,36c0,2.8,0,5.7-0.1,8.5v5.5
				c0,1.2,0,1.2,0,2.6c0,4.9,0.4,7.8,3.7,11.5l0.1,0.1c10.4,7.5,23.4,8.5,35.8,8.6h2.9c9.1-0.1,17.9-1.6,26-5.9
				c0.6-0.2,1.1-0.6,1.7-0.9c13.1-7,20.5-19,25.5-32.6c0.2-0.6,0.4-1.1,0.7-1.7c2.1-5.5,2.2-10.5,2.2-16.3v-2.9
				c0-7.4-1.5-13.6-2.5-16.9c-0.2-0.9-0.5-1.5-0.7-2.2c-1.6-4.7-4.7-11.4-4.9-11.6c-7.3-13.3-21.3-22-36.2-24.8
				c-0.4-0.2-0.9-0.2-1.2-0.3c-23-4.8-42.3,2.7-50.5,6.5c0,0,0,0-0.1,0c-4.7,3.1-8.9,6.8-13.1,10.6c-0.9,0.8-0.9,0.8-1.8,1.6
				c-8.2,7.7-14.8,17.8-20.5,27.4c-0.3,0.6-0.7,1.1-1,1.7c-1.1,1.8-2.2,3.7-3.3,5.6c-0.3,0.6-0.7,1.2-1.1,1.7
				c-2.2,3.8-4.3,7.8-6.3,11.8c-0.6,1.1-1.1,2.2-1.7,3.3c-0.2,0.6-0.6,1.1-0.8,1.7l-2.5,5c-0.4,0.8-0.4,0.8-0.8,1.7
				c-0.6,1.2-1.2,2.2-1.7,3.4c-1.7,3.2-3.1,6.4-4.4,9.8c-1.2,3.1-2.4,6.3-3.6,9.4c-5.3,13.4-9.7,26.8-13.1,40.9
				c-0.4,1.9-0.9,3.7-1.4,5.6c-1.5,5.7-2.7,11.4-3.6,17.2c-0.7,4.5-1.8,8.8-2.9,13.2c-0.2,0.6-0.2,1.2-0.4,1.8
				c-4,17-10.9,33.1-26.1,42.9c-11.1,6.7-23.4,9.1-36.3,7h-0.1c-11.4-3.1-18.7-14-24.4-23.6c-7.5-13.3-13.3-27.7-18.9-41.8
				c-0.4-1-0.7-1.9-1.2-2.9c-0.2-0.5-0.4-1-0.6-1.5c-2-5-4-9.9-6-14.8c-6.4-15.8-6.4-15.8-8.9-22.7c-4.6-12.4-9.7-24.8-14.9-37
				c-1-2.3-2-4.7-3-7c-0.3-0.7-0.7-1.5-1-2.3c-0.7-1.6-1.3-3.2-2-4.8c-0.5-1.2-0.5-1.2-1.1-2.6c-0.3-0.7-0.6-1.5-0.9-2.2
				c-1.2-2.7-2.3-5.3-3.5-8c-2.1-4.6-4.1-9.4-6.1-14.1c-0.3-0.8-0.7-1.6-1.1-2.4c-0.3-0.7-0.7-1.6-1-2.4c-0.9-2.1-1.8-4.1-2.7-6.1
				c-1.5-3.3-2.8-6.7-4.1-10.1c-1.4-3.8-2.8-7.6-4.4-11.4c-0.2-0.7-0.5-1.2-0.7-1.9c-0.6-1.4-1.2-2.8-1.7-4.2v-0.1
				c-0.8-3.3-1.2-6.4-0.7-9.7c0-0.1,0.1-0.2,0.1-0.2c3.8-4.6,10.9-5.8,16.5-6.5c0,0,0,0,0.1,0c2.8-0.2,5.6-0.2,8.5-0.2
				c0.7,0,1.5,0,2.2-0.1c8.5-0.1,15.2,2,21.6,7.7l1.2,1.2c3,3.1,4.9,6.8,6.8,10.6c0.2,0.6,0.6,1.2,0.9,1.7
				c3.1,6.3,5.8,12.8,8.4,19.2c0.5,1.2,1,2.5,1.5,3.7c10.9,26.6,10.9,26.6,14.9,38.6c0.9,2.3,1.8,4.5,2.9,6.7
				c2.9,6.4,5.5,12.9,8,19.5c3.1,8,6.4,15.9,9.8,23.8c1.2,2.9,2.4,5.7,3.6,8.6c0.9,2.3,1.9,4.7,2.9,7c1.2,3,2.5,5.9,3.6,8.9
				c0.2,0.7,0.5,1.3,0.8,2c0.6,1.4,1.1,2.7,1.7,4.1c0.7,1.9,1.6,3.9,2.3,5.8c0.4,0.9,0.4,0.9,0.7,1.9c1,3.1,1.2,3.3,3.1,5
				c0.2,0.2,0.7,0.1,0.7-0.2c0.1-0.4,0.2-0.9,0.3-1.3c1.9-7.7,4-15.3,6.1-22.9c0.2-1,0.6-1.9,0.8-2.9c1.6-5.6,3.3-11.2,5.1-16.7
				c0.9-3,1.7-6,2.6-8.9c8.5-30.3,20.8-60.3,36.7-87.5c1.2-2.1,2.4-4.1,3.6-6.2c4.1-7.1,8.4-13.7,13.5-20c0.6-0.7,1.2-1.5,1.7-2.2
				c1.8-2.3,3.7-4.6,5.7-6.9c0.3-0.4,0.7-0.8,1.1-1.2c9.8-11.4,21.1-20.9,34.5-27.8c0.8-0.4,1.7-0.9,2.5-1.3
				c6.4-3.4,13-5.6,19.9-7.8c0.6-0.2,1.2-0.4,1.8-0.6c1.6-0.5,3.2-0.8,4.8-1.1c0.8-0.2,1.7-0.3,2.5-0.5c34.7-5.4,71.7,1.1,98.9,24.1
				c15.7,13.8,26.7,30.4,33.6,50c0.3,0.9,0.7,1.7,0.9,2.7C568.9,216,565,244.9,552.1,270.8z"/>
			<path class="st0" d="M552.1,270.8c-4.9,9.5-11.1,17.8-18.3,25.7c-1.1,1.2-1.1,1.2-2.1,2.3c-9.7,10.3-21.5,17.6-34.4,23.4
				c-1,0.5-2,0.9-3,1.4c-22.6,10-50,9.3-73.6,3.1c0,0,0,0-0.1,0c-2.5-0.4-4.9-0.4-7.5-0.4c-0.2,0-0.5,0.2-0.5,0.5v1.4
				c0.1,5.9,0.1,11.8,0.1,17.7c0,3.1,0,6,0.1,9.1c0,2.9,0.1,5.9,0.1,8.8c0,1.7,0,3.3,0.1,5c0,6.2-0.3,12.1-2.7,17.9
				c0,0.1-0.1,0.2-0.2,0.2c-1.7,1.7-1.8,1.7-4.1,2.4l-2.4,0.8c0,0,0,0-0.1,0c-4.3,1.2-8.6,1-13.1,1c-1.2,0-1.2,0-2.6,0
				c-16.3-0.1-16.4-0.1-21.6-5.1l-0.1-0.1c-3.8-6.5-3.7-13.3-3.6-20.7v-20.9c0-19.6,0.7-39.1,3.5-58.5c0.2-1.5,0.2-1.5,0.4-3.1
				c5.1-34.5,19.1-79.6,48.6-101.5c2-1.3,4.1-2.6,6.1-3.8c0.5-0.3,1-0.6,1.5-0.9c1.4-0.7,1.4-0.8,3.7-1.8c0.1-0.1,0.2-0.1,0.3,0
				l1.8,0.6c0.2,0.1,0.4,0.4,0.3,0.7c-0.9,2.4-2,4.6-3.1,7c-3.4,6.9-6.5,13.7-8.7,21c-0.2,0.7-0.4,1.2-0.6,1.9
				c-3.4,11.8-3.5,23.8-3.5,36c0,2.8,0,5.7-0.1,8.5v5.5c0,1.2,0,1.2,0,2.6c0,4.9,0.4,7.8,3.7,11.5l0.1,0.1
				c10.4,7.5,23.4,8.5,35.8,8.6h2.9c9.1-0.1,17.9-1.6,26-5.9c0.6-0.2,1.1-0.6,1.7-0.9c13.1-7,20.5-19,25.5-32.6
				c0.2-0.6,0.4-1.1,0.7-1.7c2.1-5.5,2.2-10.5,2.2-16.3v-2.9c0-7.4-1.5-13.6-2.5-16.9c-0.2-0.9-0.5-1.5-0.7-2.2
				c-1.6-4.7-4.7-11.4-4.9-11.6c-7.3-13.3-21.3-22-36.2-24.8c-0.4-0.2-0.9-0.2-1.2-0.3c-23-4.8-42.3,2.7-50.5,6.5c0,0,0,0-0.1,0
				c-4.7,3.1-8.9,6.8-13.1,10.6c-0.9,0.8-0.9,0.8-1.8,1.6c-8.2,7.7-14.8,17.8-20.5,27.4c-0.3,0.6-0.7,1.1-1,1.7
				c-1.1,1.8-2.2,3.7-3.3,5.6c-0.3,0.6-0.7,1.2-1.1,1.7c-2.2,3.8-4.3,7.8-6.3,11.8c-0.6,1.1-1.1,2.2-1.7,3.3
				c-0.2,0.6-0.6,1.1-0.8,1.7l-2.5,5c-0.4,0.8-0.4,0.8-0.8,1.7c-0.6,1.2-1.2,2.2-1.7,3.4c-1.7,3.2-3.1,6.4-4.4,9.8
				c-1.2,3.1-2.4,6.3-3.6,9.4c-5.3,13.4-9.7,26.8-13.1,40.9c-0.4,1.9-0.9,3.7-1.4,5.6c-1.5,5.7-2.7,11.4-3.6,17.2
				c-0.7,4.5-1.8,8.8-2.9,13.2c-0.2,0.6-0.2,1.2-0.4,1.8c-4,17-10.9,33.1-26.1,42.9c-11.1,6.7-23.4,9.1-36.3,7h-0.1
				c-11.4-3.1-18.7-14-24.4-23.6c-7.5-13.3-13.3-27.7-18.9-41.8c-0.4-1-0.7-1.9-1.2-2.9c-0.2-0.5-0.4-1-0.6-1.5c-2-5-4-9.9-6-14.8
				c-6.4-15.8-6.4-15.8-8.9-22.7c-4.6-12.4-9.7-24.8-14.9-37c-1-2.3-2-4.7-3-7c-0.3-0.7-0.7-1.5-1-2.3c-0.7-1.6-1.3-3.2-2-4.8
				c-0.5-1.2-0.5-1.2-1.1-2.6c-0.3-0.7-0.6-1.5-0.9-2.2c-1.2-2.7-2.3-5.3-3.5-8c-2.1-4.6-4.1-9.4-6.1-14.1c-0.3-0.8-0.7-1.6-1.1-2.4
				c-0.3-0.7-0.7-1.6-1-2.4c-0.9-2.1-1.8-4.1-2.7-6.1c-1.5-3.3-2.8-6.7-4.1-10.1c-1.4-3.8-2.8-7.6-4.4-11.4
				c-0.2-0.7-0.5-1.2-0.7-1.9c-0.6-1.4-1.2-2.8-1.7-4.2v-0.1c-0.8-3.3-1.2-6.4-0.7-9.7c0-0.1,0.1-0.2,0.1-0.2
				c3.8-4.6,10.9-5.8,16.5-6.5c0,0,0,0,0.1,0c2.8-0.2,5.6-0.2,8.5-0.2c0.7,0,1.5,0,2.2-0.1c8.5-0.1,15.2,2,21.6,7.7l1.2,1.2
				c3,3.1,4.9,6.8,6.8,10.6c0.2,0.6,0.6,1.2,0.9,1.7c3.1,6.3,5.8,12.8,8.4,19.2c0.5,1.2,1,2.5,1.5,3.7
				c10.9,26.6,10.9,26.6,14.9,38.6c0.9,2.3,1.8,4.5,2.9,6.7c2.9,6.4,5.5,12.9,8,19.5c3.1,8,6.4,15.9,9.8,23.8
				c1.2,2.9,2.4,5.7,3.6,8.6c0.9,2.3,1.9,4.7,2.9,7c1.2,3,2.5,5.9,3.6,8.9c0.2,0.7,0.5,1.3,0.8,2c0.6,1.4,1.1,2.7,1.7,4.1
				c0.7,1.9,1.6,3.9,2.3,5.8c0.4,0.9,0.4,0.9,0.7,1.9c1,3.1,1.2,3.3,3.1,5c0.2,0.2,0.7,0.1,0.7-0.2c0.1-0.4,0.2-0.9,0.3-1.3
				c1.9-7.7,4-15.3,6.1-22.9c0.2-1,0.6-1.9,0.8-2.9c1.6-5.6,3.3-11.2,5.1-16.7c0.9-3,1.7-6,2.6-8.9c8.5-30.3,20.8-60.3,36.7-87.5
				c1.2-2.1,2.4-4.1,3.6-6.2c4.1-7.1,8.4-13.7,13.5-20c0.6-0.7,1.2-1.5,1.7-2.2c1.8-2.3,3.7-4.6,5.7-6.9c0.3-0.4,0.7-0.8,1.1-1.2
				c9.8-11.4,21.1-20.9,34.5-27.8c0.8-0.4,1.7-0.9,2.5-1.3c6.4-3.4,13-5.6,19.9-7.8c0.6-0.2,1.2-0.4,1.8-0.6
				c1.6-0.5,3.2-0.8,4.8-1.1c0.8-0.2,1.7-0.3,2.5-0.5c34.7-5.4,71.7,1.1,98.9,24.1c15.7,13.8,26.7,30.4,33.6,50
				c0.3,0.9,0.7,1.7,0.9,2.7C568.9,216,565,244.9,552.1,270.8z"/>
		</g>
		<g>
			<path d="M600.6,193.5"/>
			<path class="st0" d="M600.6,193.5"/>
		</g>
		<g>
			<path d="M850.4,245.5"/>
			<path class="st0" d="M850.4,245.5"/>
		</g>
	</g>
</g>
<g>
	<path class="st1" d="M818.8,100.5"/>
</g>
</svg>
